<svg width="50" height="50" viewBox="0 0 50 50" fill="none" xmlns="http://www.w3.org/2000/svg">
<rect width="50" height="50" fill="#494949"/>
<path fill-rule="evenodd" clip-rule="evenodd" d="M25.3088 17C23.0522 17 22.7693 17.0095 21.8831 17.05C20.9987 17.0904 20.3947 17.2308 19.8662 17.4362C19.3198 17.6485 18.8565 17.9326 18.3946 18.3946C17.9326 18.8565 17.6485 19.3199 17.4362 19.8662C17.2308 20.3948 17.0903 20.9987 17.05 21.8831C17.0095 22.7693 17 23.0522 17 25.3088C17 27.5654 17.0095 27.8483 17.05 28.7345C17.0903 29.6189 17.2308 30.2229 17.4362 30.7514C17.6485 31.2978 17.9326 31.7612 18.3946 32.2231C18.8565 32.685 19.3198 32.9691 19.8662 33.1814C20.3947 33.3868 20.9987 33.5272 21.8831 33.5676C22.7693 33.6081 23.0522 33.6176 25.3088 33.6176C27.5653 33.6176 27.8483 33.6081 28.7345 33.5676C29.6189 33.5272 30.2229 33.3868 30.7513 33.1814C31.2978 32.9691 31.7611 32.685 32.223 32.2231C32.6849 31.7612 32.969 31.2978 33.1814 30.7514C33.3868 30.2229 33.5272 29.6189 33.5676 28.7345C33.6081 27.8483 33.6176 27.5654 33.6176 25.3088C33.6176 23.0522 33.6081 22.7693 33.5676 21.8831C33.5272 20.9987 33.3868 20.3948 33.1814 19.8662C32.969 19.3199 32.6849 18.8565 32.223 18.3946C31.7611 17.9326 31.2978 17.6485 30.7513 17.4362C30.2229 17.2308 29.6189 17.0904 28.7345 17.05C27.8483 17.0095 27.5653 17 25.3088 17ZM25.3088 18.497C27.5273 18.497 27.7901 18.5055 28.6662 18.5455C29.4763 18.5824 29.9163 18.7178 30.2091 18.8316C30.5969 18.9823 30.8737 19.1624 31.1644 19.4531C31.4552 19.7439 31.6353 20.0207 31.786 20.4085C31.8997 20.7013 32.0351 21.1413 32.0721 21.9513C32.112 22.8275 32.1205 23.0902 32.1205 25.3088C32.1205 27.5274 32.112 27.7901 32.0721 28.6662C32.0351 29.4764 31.8997 29.9164 31.786 30.2091C31.6353 30.5969 31.4552 30.8737 31.1644 31.1645C30.8737 31.4552 30.5969 31.6353 30.2091 31.786C29.9163 31.8998 29.4763 32.0352 28.6662 32.0721C27.7902 32.1121 27.5275 32.1205 25.3088 32.1205C23.09 32.1205 22.8274 32.1121 21.9513 32.0721C21.1412 32.0352 20.7013 31.8998 20.4085 31.786C20.0207 31.6353 19.7438 31.4552 19.4531 31.1645C19.1624 30.8737 18.9823 30.5969 18.8316 30.2091C18.7178 29.9164 18.5824 29.4764 18.5455 28.6662C18.5055 27.7901 18.497 27.5274 18.497 25.3088C18.497 23.0902 18.5055 22.8275 18.5455 21.9513C18.5824 21.1413 18.7178 20.7013 18.8316 20.4085C18.9823 20.0207 19.1624 19.7439 19.4531 19.4531C19.7438 19.1624 20.0207 18.9823 20.4085 18.8316C20.7013 18.7178 21.1412 18.5824 21.9513 18.5455C22.8275 18.5055 23.0902 18.497 25.3088 18.497Z" fill="#060606"/>
<path fill-rule="evenodd" clip-rule="evenodd" d="M25.3089 20.8348C22.838 20.8348 20.835 22.8379 20.835 25.3088C20.835 27.7798 22.838 29.7828 25.3089 29.7828C27.7798 29.7828 29.7829 27.7798 29.7829 25.3088C29.7829 22.8379 27.7798 20.8348 25.3089 20.8348ZM25.3089 28.1849C23.7205 28.1849 22.4328 26.8973 22.4328 25.3088C22.4328 23.7203 23.7205 22.4327 25.3089 22.4327C26.8974 22.4327 28.1851 23.7203 28.1851 25.3088C28.1851 26.8973 26.8974 28.1849 25.3089 28.1849Z" fill="#060606"/>
<path fill-rule="evenodd" clip-rule="evenodd" d="M30.8695 20.8987C30.8695 21.4635 30.4117 21.9214 29.8468 21.9214C29.2821 21.9214 28.8242 21.4635 28.8242 20.8987C28.8242 20.334 29.2821 19.8761 29.8468 19.8761C30.4117 19.8761 30.8695 20.334 30.8695 20.8987Z" fill="#060606"/>
</svg>
