<svg width="50" height="50" viewBox="0 0 50 50" fill="none" xmlns="http://www.w3.org/2000/svg">
<rect width="50" height="50" fill="#F3F3F3"/>
<path fill-rule="evenodd" clip-rule="evenodd" d="M35 18.896C34.2991 19.2167 33.5506 19.4333 32.7614 19.5333C33.5667 19.0333 34.1864 18.2413 34.4763 17.3C33.7232 17.7627 32.8902 18.1 32.0006 18.2793C31.2875 17.4913 30.2729 17 29.1539 17C26.9997 17 25.2565 18.808 25.2565 21.0373C25.2565 21.354 25.2887 21.6627 25.357 21.9587C22.116 21.792 19.241 20.1833 17.3206 17.7373C16.9863 18.3333 16.793 19.0293 16.793 19.7667C16.793 21.1667 17.4855 22.404 18.5323 23.1293C17.8881 23.1127 17.2845 22.9293 16.7608 22.6247V22.6753C16.7608 24.6333 18.1059 26.2627 19.889 26.6333C19.5631 26.7247 19.2171 26.7747 18.8628 26.7747C18.6129 26.7747 18.3674 26.75 18.1297 26.7C18.6251 28.304 20.0668 29.4707 21.774 29.504C20.4411 30.5873 18.7578 31.2333 16.9302 31.2333C16.6159 31.2333 16.306 31.2127 16 31.1753C17.7194 32.3333 19.7686 33 21.9666 33C29.1455 33 33.0674 26.846 33.0674 21.508C33.0674 21.3333 33.0629 21.158 33.0552 20.9873C33.816 20.4167 34.4763 19.7087 35 18.896Z" fill="#060606"/>
</svg>
