<svg width="50" height="50" viewBox="0 0 50 50" fill="none" xmlns="http://www.w3.org/2000/svg">
<rect width="50" height="50" fill="#494949"/>
<path fill-rule="evenodd" clip-rule="evenodd" d="M24.2744 30.9494H25.5298C25.5298 30.9494 25.9089 30.9079 26.1027 30.6985C26.2811 30.507 26.2754 30.1464 26.2754 30.1464C26.2754 30.1464 26.2505 28.4594 27.0324 28.2111C27.8029 27.966 28.7925 29.8413 29.8414 30.5626C30.6342 31.1083 31.237 30.9889 31.237 30.9889L34.0416 30.9494C34.0416 30.9494 35.5086 30.8587 34.8127 29.7034C34.756 29.609 34.4074 28.8488 32.7276 27.2869C30.9687 25.6523 31.2045 25.9165 33.3228 23.0889C34.6126 21.3668 35.1288 20.3156 34.9675 19.865C34.814 19.436 33.8651 19.5496 33.8651 19.5496L30.7075 19.5688C30.7075 19.5688 30.473 19.5369 30.2996 19.6409C30.1301 19.743 30.0211 19.9805 30.0211 19.9805C30.0211 19.9805 29.5209 21.3132 28.855 22.4462C27.4485 24.8378 26.8865 24.9642 26.6564 24.8155C26.1218 24.4695 26.2556 23.4253 26.2556 22.6836C26.2556 20.366 26.6067 19.3997 25.5718 19.1494C25.229 19.0665 24.976 19.0116 24.0979 19.0026C22.9712 18.9912 22.0178 19.0065 21.4781 19.2714C21.1187 19.4475 20.8415 19.8401 21.0103 19.8624C21.2194 19.8905 21.6916 19.9901 21.9427 20.3315C22.2657 20.7726 22.2549 21.7632 22.2549 21.7632C22.2549 21.7632 22.4404 24.4912 21.8203 24.8295C21.3946 25.0625 20.8109 24.5876 19.5574 22.4181C18.9151 21.3068 18.4301 20.0781 18.4301 20.0781C18.4301 20.0781 18.3371 19.849 18.1701 19.7258C17.9675 19.5771 17.6851 19.5299 17.6851 19.5299L14.6843 19.5496C14.6843 19.5496 14.2338 19.5624 14.0687 19.7584C13.9215 19.9326 14.0566 20.2939 14.0566 20.2939C14.0566 20.2939 16.4055 25.7984 19.0661 28.5724C21.5049 31.1166 24.2744 30.9494 24.2744 30.9494Z" fill="#060606"/>
</svg>
